<mxfile host="app.diagrams.net" modified="2023-07-05T11:39:49.109Z" agent="Mozilla/5.0 (Macintosh; Intel Mac OS X 10_15_7) AppleWebKit/537.36 (KHTML, like Gecko) Chrome/114.0.0.0 Safari/537.36" version="21.5.2" etag="_nAfX9Z9wFPc9t2JrXj2" type="github">
  <diagram name="페이지-1" id="b8LpQ0VH1SPmCIbbmG91">
    <mxGraphModel>
      <root>
        <mxCell id="0" />
        <mxCell id="1" parent="0" />
      </root>
    </mxGraphModel>
  </diagram>
</mxfile>
